<svg width="30" height="30" viewBox="0 0 30 30" fill="none" xmlns="http://www.w3.org/2000/svg">
<path d="M14.9998 0.916656C13.0847 0.916656 11.1884 1.29387 9.41904 2.02675C7.64971 2.75963 6.04205 3.83383 4.68786 5.18802C1.95296 7.92292 0.416504 11.6322 0.416504 15.5C0.416504 21.9458 4.60192 27.4146 10.3915 29.3542C11.1207 29.4708 11.354 29.0187 11.354 28.625V26.1604C7.31442 27.0354 6.454 24.2062 6.454 24.2062C5.78317 22.5146 4.83525 22.0625 4.83525 22.0625C3.50817 21.1583 4.93734 21.1875 4.93734 21.1875C6.39567 21.2896 7.16859 22.6896 7.16859 22.6896C8.43734 24.9062 10.5811 24.25 11.4123 23.9C11.5436 22.9521 11.9228 22.3104 12.3311 21.9458C9.09359 21.5812 5.69567 20.3271 5.69567 14.7708C5.69567 13.1521 6.24984 11.8542 7.19775 10.8187C7.05192 10.4542 6.5415 8.93749 7.34359 6.96874C7.34359 6.96874 8.56859 6.57499 11.354 8.45624C12.5061 8.13541 13.7603 7.97499 14.9998 7.97499C16.2394 7.97499 17.4936 8.13541 18.6457 8.45624C21.4311 6.57499 22.6561 6.96874 22.6561 6.96874C23.4582 8.93749 22.9478 10.4542 22.8019 10.8187C23.7498 11.8542 24.304 13.1521 24.304 14.7708C24.304 20.3417 20.8915 21.5667 17.6394 21.9312C18.1644 22.3833 18.6457 23.2729 18.6457 24.6292V28.625C18.6457 29.0187 18.879 29.4854 19.6228 29.3542C25.4123 27.4 29.5832 21.9458 29.5832 15.5C29.5832 13.5849 29.206 11.6885 28.4731 9.91919C27.7402 8.14986 26.666 6.5422 25.3118 5.18802C23.9576 3.83383 22.35 2.75963 20.5806 2.02675C18.8113 1.29387 16.9149 0.916656 14.9998 0.916656Z" fill="#111111"/>
</svg>
