<svg width="32" height="31" viewBox="0 0 32 31" fill="none" xmlns="http://www.w3.org/2000/svg">
<path d="M15.5077 5.16406L18.2421 2.42968C18.9531 1.7187 19.7971 1.15471 20.7261 0.769931C21.655 0.385148 22.6507 0.187103 23.6562 0.187103C24.6616 0.187103 25.6573 0.385148 26.5862 0.76993C27.5152 1.15471 28.3592 1.7187 29.0702 2.42968C29.7812 3.14067 30.3452 3.98473 30.73 4.91367C31.1147 5.84262 31.3128 6.83826 31.3128 7.84374C31.3128 8.84923 31.1147 9.84487 30.73 10.7738C30.3452 11.7028 29.7812 12.5468 29.0702 13.2578L23.6015 18.7266C22.8905 19.4376 22.0465 20.0016 21.1175 20.3864C20.1886 20.7712 19.1929 20.9693 18.1874 20.9693C17.1819 20.9693 16.1863 20.7712 15.2573 20.3864C14.3284 20.0016 13.4843 19.4376 12.7733 18.7266C12.4837 18.4154 12.326 18.004 12.3333 17.5789C12.3407 17.1539 12.5125 16.7482 12.8127 16.4472C13.1137 16.147 13.5194 15.9751 13.9445 15.9678C14.3695 15.9604 14.7809 16.1182 15.0921 16.4078C15.4981 16.8151 15.9805 17.1383 16.5117 17.3588C17.0428 17.5793 17.6123 17.6928 18.1874 17.6928C18.7625 17.6928 19.332 17.5793 19.8631 17.3588C20.3943 17.1383 20.8767 16.8151 21.2827 16.4078L26.7515 10.9391C27.5325 10.1101 27.9598 9.00952 27.9428 7.87075C27.9259 6.73197 27.4659 5.6446 26.6606 4.83927C25.8553 4.03395 24.7679 3.57403 23.6292 3.55707C22.4904 3.54011 21.3898 3.96744 20.5608 4.74843L17.8265 7.48281C17.5153 7.77245 17.1039 7.93018 16.6788 7.92283C16.2538 7.91549 15.8481 7.74365 15.5471 7.44343C15.2469 7.14242 15.075 6.73675 15.0677 6.31169C15.0603 5.88662 15.2181 5.47525 15.5077 5.16406ZM5.24834 26.2516C5.65437 26.6588 6.13678 26.982 6.66794 27.2025C7.1991 27.423 7.76855 27.5365 8.34365 27.5365C8.91876 27.5365 9.48821 27.423 10.0194 27.2025C10.5505 26.982 11.0329 26.6588 11.439 26.2516L14.1733 23.5172C14.4845 23.2275 14.8959 23.0698 15.321 23.0772C15.746 23.0845 16.1517 23.2563 16.4527 23.5566C16.7529 23.8576 16.9248 24.2632 16.9321 24.6883C16.9395 25.1134 16.7817 25.5247 16.4921 25.8359L13.7577 28.5703C13.0467 29.2813 12.2027 29.8453 11.2737 30.2301C10.3448 30.6148 9.34914 30.8129 8.34365 30.8129C6.31298 30.8129 4.36549 30.0062 2.92959 28.5703C1.49369 27.1344 0.687012 25.1869 0.687012 23.1562C0.687012 21.1256 1.49369 19.1781 2.92959 17.7422L8.39834 12.2734C9.1093 11.5624 9.95335 10.9984 10.8823 10.6136C11.8113 10.2288 12.8069 10.0307 13.8124 10.0307C14.8179 10.0307 15.8136 10.2288 16.7425 10.6136C17.6715 10.9984 18.5155 11.5624 19.2265 12.2734C19.5161 12.5846 19.6738 12.996 19.6665 13.4211C19.6591 13.8461 19.4873 14.2518 19.1871 14.5528C18.8861 14.853 18.4804 15.0249 18.0553 15.0322C17.6303 15.0396 17.2189 14.8818 16.9077 14.5922C16.5017 14.1849 16.0193 13.8617 15.4881 13.6412C14.957 13.4207 14.3875 13.3072 13.8124 13.3072C13.2373 13.3072 12.6678 13.4207 12.1367 13.6412C11.6055 13.8617 11.1231 14.1849 10.7171 14.5922L5.24834 20.0609C4.84105 20.467 4.51789 20.9494 4.29739 21.4805C4.07689 22.0117 3.96339 22.5811 3.96339 23.1562C3.96339 23.7313 4.07689 24.3008 4.29739 24.832C4.51789 25.3631 4.84105 25.8455 5.24834 26.2516Z" fill="#111111"/>
</svg>
